<?xml version="1.0" encoding="UTF-8"?>
<svg id="Layer_1" xmlns="http://www.w3.org/2000/svg" width="2411.9" height="391.1" version="1.1" viewBox="0 0 2411.9 391.1">
  <!-- Generator: Adobe Illustrator 29.5.1, SVG Export Plug-In . SVG Version: 2.1.0 Build 141)  -->
  <defs>
    <style>
      .st0 {
        fill: #fff;
      }
    </style>
  </defs>
  <path class="st0" d="M235.8,15.1c0-5.4,4.4-11.2,8.3-13.2,1.5-1.5,3.4-2,5.4-2,3.4,0,6.8,2,7.8,7.3,0,2.9.5,5.9.5,8.8,0,4.4-.5,8.8-2.4,13.2-3.9,6.8-8.8,11.7-13.2,14.7-7.8,5.4-1.5,2.4-10.3,7.8-2.4,1.5-6.4,6.8-6.4,6.8,0,1.5.5,2.4.5,4.4,0,2.9-.5,6.4-3.4,12.2-3.9,8.3-15.6,12.7-23,12.7s-12.7,0-12.7-5.9,2-9.8,6.8-13.7c4.9-3.9,7.8-3.9,10.8-10.3,1-1.5,1.5-3.4,1.5-4.4,0-2.9-2.4-3.9-5.9-6.8-2.9-2-7.3-2.9-12.2-2.9s-6.8.5-10.8,1c-8.8,1-14.2,2.9-19.6,6.8-4.9,3.9-10.3,3.9-11.7,8.8-1,5.4-4.4,2.4-8.8,14.2-4.4,11.7-9.3,11.2-9.3,32.3s.5,10.3,3.4,18.1c4.4,10.8,8.8,11.2,9.8,14.7.5,1,1.5,1.5,2.9,1.5,2.4,0,5.9-.5,15.6-.5s17.6,1.5,23,6.4c5.4,5.4,8.3,11.2,8.3,17.1s-5.4,5.9-9.8,9.8c-3.9,4.4-6.8,5.9-17.6,5.9s-20-1-25.9-3.9c-5.4-2.9-11.2-10.8-20-10.8s-2,.5-2.9.5c-10.8,2-30.8,7.3-45.5,31.3-10.8,16.6-11.7,16.6-12.7,16.6s-1,1-1.5,1.5c-3.4,4.9-3.9,10.8-6.8,27.4,0,3.4-.5,5.9-.5,8.3,0,9.8,3.9,12.7,3.9,28.8,0,25.4,13.7,32.3,23.5,44.5,6.4,7.8,13.7,12.7,33.2,19.1,6.4,2,13.2,2.9,19.6,2.9s14.2-1,22-2c9.3-1,17.6-2.9,29.3-10.8,13.2-8.8,12.2-12.7,20-24,7.3-10.8,3.4-6.4,7.3-20,2.9-13.2,7.3-14.7,7.3-22.5s-5.4-12.2-6.8-18.6c-1.5-6.8-10.3-11.7-13.7-11.7-6.8,0-20,.5-20,11.2s1,2.9,1,5.9-.5,1.5-.5,2.4c-1,7.3-5.4,12.7-8.8,12.7s-11.2-4.4-11.2-10.8c.5-7.3,6.4-17.6,13.7-22.5,7.8-4.9,15.2-8.8,25.9-9.8,2-.5,3.9-.5,5.9-.5,9.3,0,17.1,2.9,24.9,10.8,8.3,9.3,11.7,22,11.7,31.8s-2.4,20.5-8.8,37.2c-3.4,8.8-11.7,17.6-15.6,20.5-3.9,2.9-6.8,10.8-12.2,15.2s-12.2,5.4-17.6,9.8c-4.9,4.4-13.2,8.8-18.6,9.8-5.4,1.5-16.6,2.9-26.4,4.9-5.9,1-15.6,2.4-24.9,2.4s-12.7-.5-17.6-2.4c-11.2-4.4-10.8-4.9-18.6-5.9-7.8-1.5-20.5-7.3-29.3-13.7-6.4-4.9-15.6-12.2-16.6-15.2-1-3.9-16.1-24.9-16.1-46.9s1.5-39.1,6.4-46.9c4.9-7.8,0-13.7,9.3-23.5,9.3-10.3,8.8-13.7,13.2-19.1,3.4-4.4,29.3-26.4,34.2-26.4,7.8-4.9,24.4-14.2,31.8-14.2,1.5-.5,2-1,2-2.4,0-3.4-7.3-9.3-9.8-15.2,0-.5-.5-1-1-1-2.4-5.4-6.8-14.7-6.8-26.9s1-12.2,3.9-19.6c6.8-18.1,10.3-13.7,12.2-18.1,1.5-3.9,5.4-9.8,8.3-13.2,3.4-3.4,12.7-10.3,14.2-11.7,1.5-1,6.4-6.4,16.1-10.3,9.8-4.4,25.9-5.9,38.1-5.9s22.5,4.4,25.9,7.8c6.8,7.3,9.8,7.3,9.8,9.8s.5,1,1,1c2.4,0,13.2-13.2,13.7-14.7,1.5-3.9,2.9-5.9,2.9-8.8s-1-2.9-2-5.4c-1-1.5-1-2.9-1-3.9ZM168.3,168.7c4.4,0,10.8-1,10.8-4.4s-.5-1-1-2c-2.9-4.4-1-6.4-8.8-6.4s-9.3-1-12.2-1-3.9.5-4.4,1.5c0,4.4,10.8,12.2,15.6,12.2Z"/>
  <path class="st0" d="M352.1,218.5c1.5,0,2-1,2.9-6.4,1-8.3,1-20.5,2-24.9,4.4-17.1,7.3-30.8,14.2-52.8,4.4-13.7,8.3-13.2,12.2-17.1,4.4-3.9,1.5-6.4,5.4-13.7,6.4-11.2,12.7-18.6,23-26.4,5.4-4.4,8.3-2.4,14.7-6.8,5.9-3.9,7.8-3.9,14.2-3.9,11.2,0,16.1,13.2,16.1,21.5s-2.4,10.3-2.4,16.6-3.4,25.9-4.4,32.3c-2,5.9-4.4,9.8-6.8,14.2-2.9,3.9-3.9,7.8-5.9,15.6,0,.5-.5,1-.5,1.5-2.4,9.8-15.2,33.2-18.1,36.2-7.3,8.8-9.8,21-18.1,30.3-4.9,5.4-9.3,15.2-15.2,23-2,2.9-2.9,5.9-2.9,8.8,0,5.4,2.4,9.8,2.9,13.2,3.4,9.3,5.4,23,15.6,27.4,2.4,1.5,6.8,3.9,11.7,3.9s15.2-4.4,18.6-8.3c2-2.4,14.7-15.6,17.1-17.1,3.4-2,9.3-10.8,12.2-14.2s5.9-6.8,8.8-6.8,2.9,3.4,2.9,6.8-.5,2.4-1,3.4c-2,3.4-4.4,6.4-7.8,9.3-3.9,3.4-10.3,9.3-13.2,13.2-2.4,3.9-3.9,5.9-7.3,8.8-3.9,2.9-5.9,2.9-8.8,6.8-2.4,3.9-6.4,4.9-10.3,7.8-3.9,3.4-11.7,7.3-18.6,7.3s-14.7-2-17.1-2.9c-7.3-1-19.1-16.1-25.9-21-7.8-5.9-4.4-7.8-8.3-7.8-5.9,0-9.8,11.2-13.7,15.2-2,3.9-26.4,22.5-31.8,26.9-5.4,3.9-15.6,6.8-21.5,6.8s-9.3-2.9-15.6-3.9c-6.4-1-12.7-10.8-14.2-19.6-1-4.9-1-8.3-1-12.2s0-6.4,1-10.8c1.5-9.3,2.4-9.3,4.4-16.6,2-7.3,2.9-13.2,8.3-23.5,5.4-10.3,10.3-14.2,16.1-21,5.9-6.8,7.3-2.9,14.2-11.7,7.3-8.8,18.6-14.7,34.7-14.7s12.2,7.3,17.1,7.3ZM318.4,234.7c-2.4,4.9-3.4,8.3-7.3,11.2-3.9,2.4-6.8,6.8-8.8,11.7-2.4,4.9-3.4,15.6-8.8,24-3.9,6.4-4.9,12.7-4.9,29.3s1.5,17.6,7.3,17.6,7.3-3.9,12.2-4.9c4.9-1,6.8-2,8.8-6.4,1.5-3.9,8.3-7.3,13.2-12.7,4.4-5.4,6.8-11.7,10.3-15.6,2.9-4.4,9.8-6.4,9.8-9.8s2-6.4,2-12.7-7.3-5.9-7.3-15.2,7.3-6.8,7.3-12.7-4.9-6.4-7.8-9.3c-3.4-2.4-2.9-3.4-9.3-3.4s-14.2,4.4-16.6,8.8ZM422.5,88.5c-5.9,7.3-5.9,7.8-7.8,11.2-2,3.9-2,13.7-7.3,21-9.3,10.8-9.8,30.3-14.2,44.5-2,6.4-2.4,9.3-4.9,20-1,3.4-1,6.4-1,18.1s0,5.4-.5,8.8c-1.5,8.8-3.4,16.6-3.4,20.5s0,2.9,1,3.9c2,0,12.7-22.5,15.6-28.8,3.9-6.4,10.8-14.2,12.2-17.6,1.5-2.9,2-10.3,4.4-16.6,2.9-6.4,4.4-11.2,8.3-21,2.9-6.4,7.3-9.8,7.3-14.7,0-10.3,3.9-17.1,6.8-27.9,1.5-4.4,1.5-7.3,1.5-11.2,0-10.8.5-12.7.5-14.7,0-3.9-1-5.9-5.4-5.9s-7.8,3.4-13.2,10.3Z"/>
  <path class="st0" d="M507.1,235.2c-5.9,9.3-4.4,9.3-8.8,19.1-3.4,9.8-4.4,14.2-5.9,21,0,2.4-1,4.4-1,9.8s.5,8.8,1.5,12.2c.5,5.4,5.9,11.7,12.2,11.7s7.8-2.4,14.7-9.8c6.8-7.8,10.8-11.7,19.1-24.4,7.8-12.2,2.4-19.1,7.3-29.3,3.9-9.8,3.9-16.6,9.8-19.1,5.9-3.4,8.3-11.7,16.6-11.7s8.8,6.4,8.8,14.2c-.5,6.4-2,13.7-4.4,19.1-3.4,5.4-1.5,9.3-2.9,19.6-.5,2-.5,3.9-.5,5.4,0,8.3,2.9,15.2,4.4,18.1,2,3.9,7.8,12.2,13.7,15.6,1.5.5,2.9,1,3.9,1,3.9,0,7.3-2.4,11.7-4.4,6.4-2,5.4-7.3,9.3-11.2,4.4-2.9,7.8-7.3,12.7-19.6-2.4-2.4-3.9-4.4-4.9-5.9-2.9-3.9-5.9-15.6-8.3-21-3.4-4.9-2.9-8.8-5.4-14.7-1-3.4-2-5.9-2-8.3s1-6.8,2.9-13.2c2.9-9.8,11.7-14.7,18.1-14.7s2.4.5,3.9,1c5.4,2.4,9.8,7.3,10.8,13.7,1,6.8,3.4,12.7,3.4,20.5s2,6.8,2,12.2-.5,2.4-.5,4.4c-1,5.9-2,13.7-4.4,25.4,4.4,5.9,10.8,10.8,16.6,12.2,3.4,1.5,6.8,1.5,9.8,1.5s5.9,0,7.3-.5c3.4-1,10.8-2,14.7-5.4,3.9-2.9,8.3-5.4,13.7-10.8,1.5-1,2-1,2.9-1,2,0,3.4,2,3.4,4.4s-.5,2.4-1,3.4c-2.4,3.9-6.8,6.4-11.2,9.8-4.4,2.9-7.3,5.9-12.2,7.8-5.4,2.9-9.8,2.9-18.1,2.9s-13.2-1-21.5-4.4c-3.4-1.5-6.4-4.4-9.3-7.3-12.2,20.5-30.3,38.1-50.4,38.1s-16.6-5.9-20.5-8.8c-3.9-2.4-14.2-9.3-16.1-13.2-2.4-3.4-5.4-6.4-8.3-6.4s-1,0-1.5.5c-2.9,1.5-9.8,9.8-14.2,16.1-4.4,6.8-8.3,9.8-12.2,13.2-4.4,2.9-15.6,7.3-21,7.3s-13.2-1.5-16.1-3.9c-3.9-2.9-2.9-5.9-8.8-12.7-5.9-7.3-7.8-13.7-8.3-22-.5-4.4-.5-11.2-.5-17.1s0-7.3.5-9.8c2-7.3,3.4-12.7,6.4-19.6,2.9-7.8,1.5-9.3,5.4-16.1,3.9-7.3,7.3-10.8,11.7-16.6,5.4-6.4,11.7-12.2,18.6-12.2s11.2,3.9,11.2,10.3-3.9,14.7-8.8,23.5Z"/>
  <path class="st0" d="M818.1,219c2-2,5.4-2,8.8-5.9,2.9-3.9,6.4-4.9,12.7-4.9,10.3,0,11.7,6.4,11.7,10.8s-2,6.8-5.9,12.2c-3.9,5.9-3.9,5.4-7.8,13.2-3.4,7.8-2.9,8.8-5.4,14.7-2,5.4-3.9,7.8-6.8,15.6-3.4,8.3-3.4,9.3-3.4,18.1s-2,12.2-2,18.1,2.4,13.2,6.8,15.2c1,.5,2,.5,2.9.5,3.4,0,7.3-2.4,10.8-3.4,4.9-1,9.3-5.9,14.2-9.3,4.4-3.9,5.4-5.9,8.3-9.3s5.9-6.4,8.3-7.3c2.9-1.5,6.4-8.3,8.8-11.2l12.7-15.6c1.5-2,5.4-5.9,7.8-5.9s1,.5,1.5.5c2,1,2.9,4.9,2.9,7.8l-13.7,16.1c-.5,1.5-4.9,5.9-8.3,8.8-3.4,3.4-7.3,8.8-22,25.9-2,2.9-10.3,7.3-13.7,9.8-3.9,2.4-9.3,6.8-14.7,8.3-1.5.5-3.4.5-4.9.5-3.4,0-7.3-1-9.8-1.5-5.4-.5-7.8-5.9-10.8-7.3-2.4-1.5-7.3-1.5-11.2-2.9-3.4-2-9.8-15.6-9.8-23.5,0-13.2,0-15.6-1.5-15.6s-9.8,3.9-13.7,9.8c-3.9,5.4-8.8,7.8-12.2,11.2-3.4,2.9-6.8,5.9-11.2,7.8-3.9,1.5-18.6,6.8-26.4,6.8s-11.7-2.9-16.1-3.9c-4.4-1-14.2-7.8-14.2-27.4s3.9-27.9,8.8-35.2c4.9-7.3,5.4-6.8,8.8-9.8,2.4-2.4,2-4.9,8.8-14.2,6.8-9.8,12.7-15.2,16.1-15.6,2.9-1,3.4-2.4,7.8-4.9s15.6-5.4,21-9.3c2.9-2,3.4-2.4,16.6-2.4s17.1,1.5,18.6,3.9c1,2.4,2.4,1.5,6.8,3.9,3.9,2.9,3.9,9.3,5.9,14.2,2,0,7.8-4.9,7.8-7.3ZM792.6,220c-3.9-4.4-6.8-6.4-15.6-6.4s-2.9,1.5-9.3,3.4c-6.4,2-6.8,5.9-9.8,8.8-1.5,2.9-2.9,5.4-5.4,6.8-2,.5-2.9,0-7.8,6.4-4.9,7.3-6.8,12.2-11.7,25.4-5.4,13.2-7.3,21-7.3,32.3s2,16.1,6.4,16.1,10.3-4.4,13.2-5.9c2.4-1,7.8-2.4,10.8-7.8,3.4-5.9,9.3-11.7,13.2-15.2,4.9-2.9,8.8-10.3,13.7-14.7,5.4-4.9,14.7-28.4,14.7-33.7s-1.5-10.8-4.9-15.6Z"/>
  <path class="st0" d="M883.1,283.6c0-3.9,4.9-9.8,12.2-17.1,2.9-3.9,4.4-6.4,10.8-13.2,5.4-5.9,10.3-11.2,10.3-16.6s-10.3-18.1-10.3-31.3-1-13.2-1-17.6.5-5.9,2-7.8c3.9-4.9,11.7-12.2,17.1-12.7,4.9-.5,10.3-5.4,15.6-5.4s13.7,7.3,17.1,11.2c1.5,2,2.4,4.9,2.4,8.8s-1,8.8-2,12.7c-2.9,7.8-4.4,14.7-7.3,21.5-2,6.8-5.9,9.8-5.9,14.2s2.4,8.3,9.3,10.8c6.4,2.4,13.2,5.4,16.1,7.8,1,1.5,2,2.9,2,5.4s-1,6.4-4.4,11.7c-7.3,9.8-14.2,18.6-18.1,23-4.4,4.4-7.3,12.2-8.8,22-1.5,7.8-2,4.9-2,11.7s6.4,9.8,13.7,9.8,10.8-5.9,16.6-7.3c4.9-1,4.9-3.9,13.7-8.8,8.8-5.4,10.8-10.8,18.1-15.6,6.8-5.4,10.3-8.8,16.1-13.7,5.4-5.4,13.7-20,17.6-20s6.4,1,6.4,6.8-2.9,5.9-8.3,11.2c-7.8,7.3-10.3,14.2-20,22-10.3,8.3-15.2,11.7-20.5,15.6-4.4,3.9-22.5,23.5-33.7,26.4-11.7,2.9-20,3.9-26.9,3.9s-20-10.8-22-17.6c-1.5-6.4-4.9-9.8-4.9-16.6s4.4-15.6,8.8-22c4.9-6.4,4.4-13.2,9.8-18.6,5.9-4.9,2.9-8.3,11.7-14.7,7.8-6.4,11.7-8.8,11.7-11.2s-3.9-.5-8.3-3.4c-4.9-2.4-5.4-2.4-9.3-2.4s-7.3,5.9-9.3,9.8c-2,3.9-5.4,6.4-10.3,11.7-4.4,5.4-5.9,7.8-8.8,10.8-5.4,5.9-8.3,10.3-11.2,10.3s-2.9-1-4.9-2.9c-.5-.5-1-1.5-1-2.4ZM943.7,199.5c.5-4.4,0-9.3,1-15.6,0-1,.5-2,.5-2.9,0-4.9-2.9-8.8-4.9-8.8-2,1.5-3.9,7.8-4.9,13.2-.5,2.9-1,6.4-1,10.3s0,4.9.5,7.3c1.5,6.4,3.4,12.2,3.4,12.2.5-.5,3.9-10.3,5.4-15.6Z"/>
  <path class="st0" d="M1116.3,218.5c1.5,0,2-1,2.9-6.4,1-8.3,1-20.5,2-24.9,4.4-17.1,7.3-30.8,14.2-52.8,4.4-13.7,8.3-13.2,12.2-17.1,4.4-3.9,1.5-6.4,5.4-13.7,6.4-11.2,12.7-18.6,23-26.4,5.4-4.4,8.3-2.4,14.7-6.8,5.9-3.9,7.8-3.9,14.2-3.9,11.2,0,16.1,13.2,16.1,21.5s-2.4,10.3-2.4,16.6-3.4,25.9-4.4,32.3c-2,5.9-4.4,9.8-6.8,14.2-2.9,3.9-3.9,7.8-5.9,15.6,0,.5-.5,1-.5,1.5-2.4,9.8-15.2,33.2-18.1,36.2-7.3,8.8-9.8,21-18.1,30.3-4.9,5.4-9.3,15.2-15.2,23-2,2.9-2.9,5.9-2.9,8.8,0,5.4,2.4,9.8,2.9,13.2,3.4,9.3,5.4,23,15.6,27.4,2.4,1.5,6.8,3.9,11.7,3.9s15.2-4.4,18.6-8.3c2-2.4,14.7-15.6,17.1-17.1,3.4-2,9.3-10.8,12.2-14.2s5.9-6.8,8.8-6.8,2.9,3.4,2.9,6.8-.5,2.4-1,3.4c-2,3.4-4.4,6.4-7.8,9.3-3.9,3.4-10.3,9.3-13.2,13.2-2.4,3.9-3.9,5.9-7.3,8.8-3.9,2.9-5.9,2.9-8.8,6.8-2.4,3.9-6.4,4.9-10.3,7.8-3.9,3.4-11.7,7.3-18.6,7.3s-14.7-2-17.1-2.9c-7.3-1-19.1-16.1-25.9-21-7.8-5.9-4.4-7.8-8.3-7.8-5.9,0-9.8,11.2-13.7,15.2-2,3.9-26.4,22.5-31.8,26.9-5.4,3.9-15.6,6.8-21.5,6.8s-9.3-2.9-15.6-3.9c-6.4-1-12.7-10.8-14.2-19.6-1-4.9-1-8.3-1-12.2s0-6.4,1-10.8c1.5-9.3,2.4-9.3,4.4-16.6,2-7.3,2.9-13.2,8.3-23.5,5.4-10.3,10.3-14.2,16.1-21,5.9-6.8,7.3-2.9,14.2-11.7,7.3-8.8,18.6-14.7,34.7-14.7s12.2,7.3,17.1,7.3ZM1082.6,234.7c-2.4,4.9-3.4,8.3-7.3,11.2-3.9,2.4-6.8,6.8-8.8,11.7-2.4,4.9-3.4,15.6-8.8,24-3.9,6.4-4.9,12.7-4.9,29.3s1.5,17.6,7.3,17.6,7.3-3.9,12.2-4.9c4.9-1,6.8-2,8.8-6.4,1.5-3.9,8.3-7.3,13.2-12.7,4.4-5.4,6.8-11.7,10.3-15.6,2.9-4.4,9.8-6.4,9.8-9.8s2-6.4,2-12.7-7.3-5.9-7.3-15.2,7.3-6.8,7.3-12.7-4.9-6.4-7.8-9.3c-3.4-2.4-2.9-3.4-9.3-3.4s-14.2,4.4-16.6,8.8ZM1186.7,88.5c-5.9,7.3-5.9,7.8-7.8,11.2-2,3.9-2,13.7-7.3,21-9.3,10.8-9.8,30.3-14.2,44.5-2,6.4-2.4,9.3-4.9,20-1,3.4-1,6.4-1,18.1s0,5.4-.5,8.8c-1.5,8.8-3.4,16.6-3.4,20.5s0,2.9,1,3.9c2,0,12.7-22.5,15.6-28.8,3.9-6.4,10.8-14.2,12.2-17.6,1.5-2.9,2-10.3,4.4-16.6,2.9-6.4,4.4-11.2,8.3-21,2.9-6.4,7.3-9.8,7.3-14.7,0-10.3,3.9-17.1,6.8-27.9,1.5-4.4,1.5-7.3,1.5-11.2,0-10.8.5-12.7.5-14.7,0-3.9-1-5.9-5.4-5.9s-7.8,3.4-13.2,10.3Z"/>
  <path class="st0" d="M1219,280.6c0-2,1.5-3.9,3.4-5.9,3.9-4.9,15.2-12.7,18.6-18.6,3.4-5.9,7.8-6.4,7.8-13.2s-4.9-22-4.9-33.2,0-6.4,1-8.3c3.4-10.3,14.2-42.5,30.3-42.5s7.8-.5,10.8-.5,4.9.5,6.4,2c6.4,5.4,10.8,9.3,10.8,19.1s-4.9,15.6-12.2,25.9c-7.8,10.8-7.8,16.1-10.8,20.5-1,1.5-1.5,3.9-1.5,6.4,0,4.4,1.5,8.8,3.9,12.7,3.9,6.4,5.4,16.6,8.3,24.9,2,5.9,5.4,17.6,9.3,27.4,15.2-5.4,19.1-11.7,25.4-15.6,5.4-3.9,11.7-14.7,16.1-14.7s3.9,2,3.9,4.9-3.9,9.8-7.8,13.2c-3.9,3.9-9.3,10.3-20,17.6-5.9,3.4-13.2,6.4-20,8.8l-1,6.8c-3.9,12.2-8.3,19.6-16.1,27.9-7.8,7.8-23,13.7-28.8,15.6-1,.5-2,.5-3.4.5-5.4,0-12.2-2.4-18.6-6.4-7.3-3.4-11.7-6.8-11.7-13.7s0-2,.5-3.4c2-9.3,4.4-10.3,11.7-16.1,7.8-5.9,12.2-7.3,21.5-11.7l13.7-3.9c-2-21.5-6.8-25.4-7.8-33.7,0-2.9-1.5-8.8-3.9-8.8s-2.9,1.5-5.9,3.4c-7.8,5.9-8.3,9.8-13.7,14.7-3.9,2.9-6.4,4.4-8.8,4.4s-2.4,0-2.9-1c-2-1-3.4-2.9-3.4-5.4ZM1240,334.4c0,.5.5,3.9,1,4.4,2,2.9,4.9,3.9,8.3,3.9,7.8,0,16.6-10.8,17.1-24.4-15.6,5.4-26.4,12.2-26.4,16.1ZM1287.9,190.7c2.4-3.4,3.4-8.8,3.4-12.7s-1.5-8.3-4.9-8.3c-6.4,0-12.2,12.7-13.2,17.1-1,2.4-1.5,10.3-1.5,16.1s0,7.8,1.5,7.8,9.8-12.2,14.7-20Z"/>
  <path class="st0" d="M1539.7,218c-2.9,1.5-6.8,3.4-11.2,3.4-7.8,0-17.1-4.4-28.8-8.3-10.8-3.9-19.6-9.8-24.4-15.2-4.4-4.9-8.8-11.7-11.7-18.1-2.9-6.4-3.9-12.7-3.9-26.4.5-14.7,8.3-36.2,14.2-42.5,11.7-13.7,19.1-23.5,31.3-30.3,6.8-3.9,12.7-8.3,18.1-10.8-.5.5,3.9-2.4,4.9-3.4,2-.5,5.9-3.9,9.8-6.8,3.4-2.9,10.8-5.9,12.7-6.8,4.9-3.4,23.5-9.8,35.2-11.2,5.9-.5,12.2-2.9,17.6-4.4,3.9-1.5,7.8-2.4,11.2-2.4s2.9,0,5.4-.5c4.9-1,11.7-2,24-2,18.1,0,36.7,1,43,3.4,6.8,3.4,28.4,6.8,31.8,6.8s35.7,10.8,51.3,27.9c15.6,17.1,25.4,28.8,25.4,51.8s-3.4,42-17.1,59.6c-10.8,13.7-19.6,22.5-22.5,24.4-8.8,5.4-7.3,7.3-13.7,13.7-5.4,4.4-16.6,13.2-24,13.2-7.3,2.4-11.7,3.9-16.6,7.3-4.4,2.4-8.3,4.4-20,9.3-.5,0-1.5.5-2,.5-6.8,2-12.2,4.4-12.2,7.3s6.4,3.4,10.8,8.3c4.9,5.9,9.3,12.7,11.7,17.6,3.4,5.9,9.3,17.6,13.7,19.6,3.4,1.5,5.4,3.4,7.3,5.4,2.4,2.4,5.4,4.9,7.3,4.9s2.4.5,3.9.5,3.4-1,6.4-3.9c2-2.4,4.9-3.4,7.3-3.4s3.4.5,3.9,2.4c.5.5.5,1.5.5,2,0,6.8-6.8,13.7-13.2,15.6-3.9,1-8.3,1.5-12.2,1.5s-5.4,0-7.3-1c-7.8-2.4-11.7-4.4-18.1-8.3-9.8-5.9-13.7-8.8-18.6-13.2-6.8-6.4-10.8-10.3-13.2-14.2-5.4-10.3-9.3-11.2-11.2-13.7-3.4-4.4-4.4-8.3-8.3-8.3s-4.9,1.5-5.4,8.8c-2,11.2-7.8,42.5-13.2,52.3-2.4,3.9-4.4,7.8-6.4,12.2-5.4,9.3-12.2,19.6-21.5,25.9-5.9,3.9-7.8,6.4-10.8,10.3-4.9,4.4-13.7,3.4-18.6,8.3-3.9,2.4-13.7,3.9-20.5,3.9-6.8-.5-9.8-.5-12.7-.5-7.8,0-17.1-1-25.9-7.8-8.3-6.8-18.6-19.1-18.6-30.8-1-4.9-1.5-9.3-1.5-13.7s1-6.4,1.5-8.8c1.5-4.4,2.4-8.8,3.4-12.7,1.5-4.4,14.7-18.6,21-22,5.4-3.4,13.2-9.8,23.5-9.8s21.5,4.4,25.9,7.3c4.4,3.9,12.7,12.7,12.7,24.4s-10.3,24.4-14.2,26.9c-3.4,2-8.3,5.4-12.2,5.4-10.3,0-17.6-2.4-17.6-8.8s2.9-12.2,8.8-12.2,3.9.5,5.9,1.5c.5,0,2,1,2.9,1,3.4,0,3.9-5.9,3.9-10.3s0-2.9-.5-4.4c-1.5-5.4-2-6.4-4.9-8.8-2.4-2.9-6.4-6.4-12.2-6.4s-20,8.8-25.4,19.1c-2.4,2.9-4.9,10.8-5.4,14.7,0,2,1.5,6.4,3.4,10.8,2,4.4,3.9,7.8,3.9,9.8.5,3.9,5.4,8.8,11.7,12.7,3.9,2.9,9.8,6.8,13.7,6.8,5.9,0,13.7-.5,19.1-1.5,3.4-1,8.3-3.4,10.8-5.4,5.4-3.9,6.4-5.9,7.3-7.8,8.3-11.7,12.7-21.5,15.6-29.3,2-5.4,2.9-11.2,7.3-29.3,2.9-10.8,5.4-21.5,5.4-33.2-.5-2-2-3.9-10.3-7.8-5.9-2.4-12.2-5.9-19.1-10.3-1.5-1.5-3.9-3.4-3.9-6.4,0-4.9,2.9-12.2,8.8-13.7,3.9-1,11.7-2.4,15.2-2.4s4.4,0,12.7-.5c2,0,5.9-12.7,6.4-23.5,1-11.7,4.9-27.4,5.9-33.2,2.9-14.7,4.4-25.9,12.2-38.1,9.3-14.7,21.5-24.9,37.6-31.8,3.9-1,7.8-3.4,9.8-5.4,2.4-2.9,9.8-4.4,14.7-4.9,2-.5,6.4-1,5.4-1,1.5-.5,2.4-.5,3.4-.5,5.4,0,9.8,3.4,9.8,9.3s-3.9,7.8-7.8,7.8-2-1.5-4.9-1.5-2.9.5-4.9,1.5c-.5,0-1,.5-1.5.5s-1,.5-1.5.5c-4.9,2-10.8,3.9-14.7,8.3-7.8,7.8-9.3,18.6-14.7,29.8-2.9,7.8-7.8,21.5-7.8,27.4s.5,4.9.5,7.8c0,8.3-2.4,15.6-4.9,20-2,3.4-2,5.9-2,11.2s-1,13.2-1,20,.5,7.3,1.5,8.3c2,2,7.3,2.9,10.8,4.4,1.5.5,2.9.5,4.4.5s4.4-1,11.2-4.4,10.8-5.4,15.2-5.4,6.8-5.4,19.1-11.7c3.9-2.4,7.3-3.9,10.8-6.8,6.4-4.9,13.7-12.7,19.6-20.5,3.9-4.9,11.7-21.5,16.1-32.8.5-1.5,2-2.9,2.4-4.4,4.4-10.3,4.4-17.6,4.4-23.5s-2-23.5-4.9-28.4c-2-3.4-3.9-6.4-3.9-8.8,0-4.4-7.3-14.2-10.3-18.1-2.4-3.4-3.4-5.4-7.3-8.3-5.4-3.9-6.4-4.9-14.2-8.8-5.9-3.4-14.7-7.8-22.5-9.8-6.8-2-12.7-2.9-18.6-3.9-9.8-2-11.7-2.9-29.8-2.9s-28.8,1-35.7,2.4c-6.8,1-14.2,4.4-20.5,7.3-4.9,2-7.8,3.9-11.7,3.9s-5.4,2-6.8,3.4c-4.9,4.4-10.8,7.3-16.6,9.3-9.8,4.4-12.7,5.9-15.6,9.3-2,2.4-3.9,3.4-4.9,3.9-1.5.5-3.4,2.4-7.8,7.8-4.4,5.4-7.8,11.2-10.8,15.6-2,3.9-2,6.4-7.8,10.3-3.4,2-6.8,5.9-10.3,13.2,0,7.3-6.4,16.1-6.8,25.9,0,5.9,2.4,20,5.4,25.9,5.9,11.2,19.6,24.9,34.2,24.9s16.6-3.9,22.5-6.8c3.9-1.5,10.3-4.9,13.2-10.3,2.9-4.9,5.4-11.2,5.4-15.6,0-6.4,0-10.3-1-11.7-1.5-2-3.9-7.3-7.3-7.3s-3.4,1-5.4,2.9c-3.4,2-5.9,3.9-8.8,3.9-5.4,0-6.8-3.4-6.8-8.3,0-7.3,10.8-13.2,21.5-13.2,15.6,0,28.4,9.8,28.4,29.3s-1.5,16.6-5.4,21c-3.9,3.9-8.3,6.4-12.2,10.3-3.9,4.4-11.2,11.7-17.6,11.7s-11.2,2.9-16.6,2.9ZM1593,235.6c-4.9,0-11.7,1-11.7,4.4s2.4,1.5,5.9,2.9c.5,0,4.4,1.5,7.8,3.9,2.4,1.5,6.4,3.4,6.8,3.4,1.5,0,2.9-3.9,2.9-7.8-1-4.9-6.4-6.8-11.7-6.8Z"/>
  <path class="st0" d="M1879,219c2-2,5.4-2,8.8-5.9,2.9-3.9,6.4-4.9,12.7-4.9,10.3,0,11.7,6.4,11.7,10.8s-2,6.8-5.9,12.2c-3.9,5.9-3.9,5.4-7.8,13.2-3.4,7.8-2.9,8.8-5.4,14.7-2,5.4-3.9,7.8-6.8,15.6-3.4,8.3-3.4,9.3-3.4,18.1s-2,12.2-2,18.1,2.4,13.2,6.8,15.2c1,.5,2,.5,2.9.5,3.4,0,7.3-2.4,10.8-3.4,4.9-1,9.3-5.9,14.2-9.3,4.4-3.9,5.4-5.9,8.3-9.3s5.9-6.4,8.3-7.3c2.9-1.5,6.4-8.3,8.8-11.2l12.7-15.6c1.5-2,5.4-5.9,7.8-5.9s1,.5,1.5.5c2,1,2.9,4.9,2.9,7.8l-13.7,16.1c-.5,1.5-4.9,5.9-8.3,8.8-3.4,3.4-7.3,8.8-22,25.9-2,2.9-10.3,7.3-13.7,9.8-3.9,2.4-9.3,6.8-14.7,8.3-1.5.5-3.4.5-4.9.5-3.4,0-7.3-1-9.8-1.5-5.4-.5-7.8-5.9-10.8-7.3-2.4-1.5-7.3-1.5-11.2-2.9-3.4-2-9.8-15.6-9.8-23.5,0-13.2,0-15.6-1.5-15.6s-9.8,3.9-13.7,9.8c-3.9,5.4-8.8,7.8-12.2,11.2-3.4,2.9-6.8,5.9-11.2,7.8-3.9,1.5-18.6,6.8-26.4,6.8s-11.7-2.9-16.1-3.9c-4.4-1-14.2-7.8-14.2-27.4s3.9-27.9,8.8-35.2c4.9-7.3,5.4-6.8,8.8-9.8,2.4-2.4,2-4.9,8.8-14.2,6.8-9.8,12.7-15.2,16.1-15.6,2.9-1,3.4-2.4,7.8-4.9s15.6-5.4,21-9.3c2.9-2,3.4-2.4,16.6-2.4s17.1,1.5,18.6,3.9c1,2.4,2.4,1.5,6.8,3.9,3.9,2.9,3.9,9.3,5.9,14.2,2,0,7.8-4.9,7.8-7.3ZM1853.6,220c-3.9-4.4-6.8-6.4-15.6-6.4s-2.9,1.5-9.3,3.4c-6.4,2-6.8,5.9-9.8,8.8-1.5,2.9-2.9,5.4-5.4,6.8-2,.5-2.9,0-7.8,6.4-4.9,7.3-6.8,12.2-11.7,25.4-5.4,13.2-7.3,21-7.3,32.3s2,16.1,6.4,16.1,10.3-4.4,13.2-5.9c2.4-1,7.8-2.4,10.8-7.8,3.4-5.9,9.3-11.7,13.2-15.2,4.9-2.9,8.8-10.3,13.7-14.7,5.4-4.9,14.7-28.4,14.7-33.7s-1.5-10.8-4.9-15.6Z"/>
  <path class="st0" d="M2040.3,218.5c1.5,0,2-1,2.9-6.4,1-8.3,1-20.5,2-24.9,4.4-17.1,7.3-30.8,14.2-52.8,4.4-13.7,8.3-13.2,12.2-17.1,4.4-3.9,1.5-6.4,5.4-13.7,6.4-11.2,12.7-18.6,23-26.4,5.4-4.4,8.3-2.4,14.7-6.8,5.9-3.9,7.8-3.9,14.2-3.9,11.2,0,16.1,13.2,16.1,21.5s-2.4,10.3-2.4,16.6-3.4,25.9-4.4,32.3c-2,5.9-4.4,9.8-6.8,14.2-2.9,3.9-3.9,7.8-5.9,15.6,0,.5-.5,1-.5,1.5-2.4,9.8-15.2,33.2-18.1,36.2-7.3,8.8-9.8,21-18.1,30.3-4.9,5.4-9.3,15.2-15.2,23-2,2.9-2.9,5.9-2.9,8.8,0,5.4,2.4,9.8,2.9,13.2,3.4,9.3,5.4,23,15.6,27.4,2.4,1.5,6.8,3.9,11.7,3.9s15.2-4.4,18.6-8.3c2-2.4,14.7-15.6,17.1-17.1,3.4-2,9.3-10.8,12.2-14.2s5.9-6.8,8.8-6.8,2.9,3.4,2.9,6.8-.5,2.4-1,3.4c-2,3.4-4.4,6.4-7.8,9.3-3.9,3.4-10.3,9.3-13.2,13.2-2.4,3.9-3.9,5.9-7.3,8.8-3.9,2.9-5.9,2.9-8.8,6.8-2.4,3.9-6.4,4.9-10.3,7.8-3.9,3.4-11.7,7.3-18.6,7.3s-14.7-2-17.1-2.9c-7.3-1-19.1-16.1-25.9-21-7.8-5.9-4.4-7.8-8.3-7.8-5.9,0-9.8,11.2-13.7,15.2-2,3.9-26.4,22.5-31.8,26.9-5.4,3.9-15.6,6.8-21.5,6.8s-9.3-2.9-15.6-3.9c-6.4-1-12.7-10.8-14.2-19.6-1-4.9-1-8.3-1-12.2s0-6.4,1-10.8c1.5-9.3,2.4-9.3,4.4-16.6,2-7.3,2.9-13.2,8.3-23.5,5.4-10.3,10.3-14.2,16.1-21,5.9-6.8,7.3-2.9,14.2-11.7,7.3-8.8,18.6-14.7,34.7-14.7s12.2,7.3,17.1,7.3ZM2006.6,234.7c-2.4,4.9-3.4,8.3-7.3,11.2-3.9,2.4-6.8,6.8-8.8,11.7-2.4,4.9-3.4,15.6-8.8,24-3.9,6.4-4.9,12.7-4.9,29.3s1.5,17.6,7.3,17.6,7.3-3.9,12.2-4.9c4.9-1,6.8-2,8.8-6.4,1.5-3.9,8.3-7.3,13.2-12.7,4.4-5.4,6.8-11.7,10.3-15.6,2.9-4.4,9.8-6.4,9.8-9.8s2-6.4,2-12.7-7.3-5.9-7.3-15.2,7.3-6.8,7.3-12.7-4.9-6.4-7.8-9.3c-3.4-2.4-2.9-3.4-9.3-3.4s-14.2,4.4-16.6,8.8ZM2110.7,88.5c-5.9,7.3-5.9,7.8-7.8,11.2-2,3.9-2,13.7-7.3,21-9.3,10.8-9.8,30.3-14.2,44.5-2,6.4-2.4,9.3-4.9,20-1,3.4-1,6.4-1,18.1s0,5.4-.5,8.8c-1.5,8.8-3.4,16.6-3.4,20.5s0,2.9,1,3.9c2,0,12.7-22.5,15.6-28.8,3.9-6.4,10.8-14.2,12.2-17.6,1.5-2.9,2-10.3,4.4-16.6,2.9-6.4,4.4-11.2,8.3-21,2.9-6.4,7.3-9.8,7.3-14.7,0-10.3,3.9-17.1,6.8-27.9,1.5-4.4,1.5-7.3,1.5-11.2,0-10.8.5-12.7.5-14.7,0-3.9-1-5.9-5.4-5.9s-7.8,3.4-13.2,10.3Z"/>
  <path class="st0" d="M2191.9,226.8c0,9.8-1.5,13.2-4.4,20-3.4,6.8-5.4,7.3-5.9,17.1-.5,10.3-1,9.8-1,19.1s1.5,8.8,2.4,14.2c.5,5.9,5.4,9.3,10.3,11.7,1,.5,2,.5,2.9.5,4.4,0,9.3-3.9,14.2-6.4,5.4-3.4,7.3-1.5,14.2-9.8,4.9-5.4,13.7-11.2,19.1-17.6,5.4-6.4,7.3-9.8,10.8-9.8s3.4,1,3.4,3.4c0,9.3-9.3,16.1-12.7,19.6-6.8,6.4-6.8,2.4-9.8,8.3-2.9,5.9-10.8,13.2-17.6,17.6-6.8,3.9-10.8,6.8-14.7,8.8-3.4,2-5.9,4.9-17.1,4.9s-21-3.9-24.4-6.8c-3.4-2.9-8.3-10.8-10.8-15.6-1-2-1-3.9-1-6.4,0-8.3,0-10.3-.5-12.2-1-3.9-2-7.8-2-11.7s.5-4.9,1-7.8c1.5-9.3,0-12.2,2.4-19.6,3.4-6.4,5.4-9.8,8.3-16.1,2.9-6.4,9.8-18.6,19.1-18.6,0,0,13.7,1.5,13.7,13.2ZM2201.7,156.4c-1,0-2.4,0-4.4-.5-5.4-1.5-8.8-7.3-8.8-11.7s.5-2.4,1-3.4c2-5.4.5-8.3,7.8-16.1,3.4-3.4,7.3-4.4,10.8-4.4s7.8,1.5,9.3,3.4c2.9,2.9,5.4,7.3,5.4,11.7s0,2-.5,3.4c-1.5,5.4-9.8,13.7-13.7,15.6-2.9,1-3.9,2-6.8,2Z"/>
  <path class="st0" d="M2287.2,222.4c2.9-16.6,24.9-30.3,38.1-30.3,24.9,0,31.3,15.6,32.8,22,1,4.9,2.4,10.8,2.4,18.1,0,15.2-3.9,22-6.4,32.8-1.5,5.4-4.9,10.8-5.9,16.1,9.3,2.4,19.6,2.9,27.4,2.9s16.1-5.9,24-13.2c3.4-3.9,3.9-6.8,8.3-6.8s3.9,3.4,3.9,5.9c0,4.4-5.4,10.3-8.3,12.7-3.4,2-7.8,7.3-15.6,10.8-6.8,2.9-14.7,3.4-28.8,3.4s-10.8-1.5-16.1-2.9c-2,5.4-7.8,8.8-9.3,11.2-2.4,3.9-5.9,8.8-10.8,13.7-5.4,4.9-10.3,5.4-17.1,9.8-4.9,3.9-15.6,5.9-20.5,5.9-7.3,0-17.1-6.4-24.4-7.8-6.8-2-11.7-9.8-12.7-13.7-.5-3.9-2.9-11.2-2.9-23.5s0-17.1,6.4-30.3c6.4-12.7,10.3-13.7,17.6-22,5.4-6.4,11.7-11.2,18.1-14.7ZM2288.7,244.4c-1,2-2.4,3.9-2.4,5.9-2,5.9-4.9,8.8-6.4,18.1-1.5,6.4-1.5,9.3-1.5,17.1s.5,15.2,1.5,19.1c.5,4.4,2.9,14.2,6.4,15.2,2.4.5,5.4,1.5,7.8,1.5s2.9-.5,4.4-1c4.4-2.9,11.7-5.4,17.1-10.8,5.4-4.9,7.3-11.2,13.7-22-9.3-4.4-13.2-9.3-16.1-11.2-2.9-1.5-8.3-6.4-9.3-9.3-1-2.9-2.9-4.9-7.3-7.8-2.4-1.5-5.9-6.8-7.8-14.7ZM2335.6,275.7c2.9-5.9,4.9-12.7,4.9-18.1s0-3.4-.5-4.4c-.5-1-.5-2-.5-2.9,0-2.9,1.5-5.9,2-10.3.5-1.5.5-2.9.5-4.4,0-4.9-1-10.8-1.5-16.6-.5-6.8-5.4-10.8-11.2-10.8s-5.4,3.4-7.8,4.9c-3.9,1-4.4,4.4-5.9,9.3-.5,2.4-1,6.8-1,10.8,0,7.8,1.5,17.1,6.4,24.9,2.4,3.9,10.3,14.7,14.7,17.6Z"/>
</svg>